<?xml version="1.0" standalone="no"?>
<!DOCTYPE svg PUBLIC "-//W3C//DTD SVG 20010904//EN"
 "http://www.w3.org/TR/2001/REC-SVG-20010904/DTD/svg10.dtd">
<svg version="1.0" xmlns="http://www.w3.org/2000/svg"
 width="100.000000pt" height="100.000000pt" viewBox="0 0 100.000000 100.000000"
 preserveAspectRatio="xMidYMid meet">

<g transform="translate(0.000000,100.000000) scale(0.100000,-0.100000)"
fill="#000000" stroke="none">
<path d="M0 500 l0 -500 500 0 500 0 0 500 0 500 -500 0 -500 0 0 -500z m354
160 c44 -16 31 -32 -19 -24 -66 9 -94 -1 -111 -42 -19 -45 -10 -88 23 -114 31
-24 60 -25 111 -5 l39 16 -1 60 c-1 56 2 63 32 90 25 22 42 29 75 29 48 0 87
-22 87 -50 0 -19 -47 -64 -112 -107 -37 -25 -38 -28 -22 -40 42 -30 108 -11
174 51 25 24 65 54 88 67 23 13 42 27 42 31 0 13 -49 20 -95 14 -50 -8 -63 8
-19 24 60 23 131 2 152 -45 7 -14 12 -62 12 -106 0 -77 -1 -79 -20 -69 -14 7
-26 8 -39 0 -28 -14 -81 -12 -113 4 -25 13 -34 13 -74 -1 -51 -17 -109 -12
-132 11 -13 13 -19 13 -43 0 -78 -40 -164 -24 -189 36 -20 49 -8 129 24 157
29 25 85 31 130 13z m434 -317 c3 -10 -59 -13 -287 -13 -160 0 -291 4 -291 8
0 5 3 12 7 15 4 4 133 6 286 5 214 -2 281 -6 285 -15z"/>
<path d="M441 614 c-23 -29 -29 -94 -8 -94 20 0 129 90 124 103 -2 7 -24 13
-49 15 -40 3 -49 -1 -67 -24z"/>
<path d="M726 565 c-21 -13 -53 -35 -70 -50 -29 -26 -30 -28 -11 -41 22 -16
78 -18 105 -4 22 12 41 70 33 100 -6 24 -8 24 -57 -5z"/>
</g>
</svg>
