<?xml version="1.0" standalone="no"?>
<!DOCTYPE svg PUBLIC "-//W3C//DTD SVG 20010904//EN"
 "http://www.w3.org/TR/2001/REC-SVG-20010904/DTD/svg10.dtd">
<svg version="1.0" xmlns="http://www.w3.org/2000/svg"
 width="100.000000pt" height="100.000000pt" viewBox="0 0 100.000000 100.000000"
 preserveAspectRatio="xMidYMid meet">

<g transform="translate(0.000000,100.000000) scale(0.100000,-0.100000)"
fill="#000000" stroke="none">
<path d="M206 489 c-4 -8 -3 -26 3 -40 7 -19 10 -21 15 -8 4 8 3 26 -3 40 -7
19 -10 21 -15 8z"/>
<path d="M245 482 c3 -7 5 -23 5 -33 0 -12 4 -17 11 -14 6 4 8 13 5 21 -3 7
-1 16 4 19 17 11 11 24 -10 22 -13 -1 -19 -6 -15 -15z"/>
<path d="M322 475 c-17 -37 -15 -50 4 -34 13 10 17 10 25 -2 7 -11 9 -10 9 7
0 11 -6 28 -13 38 -12 17 -14 16 -25 -9z"/>
<path d="M130 466 c0 -14 5 -28 10 -31 6 -4 10 7 10 24 0 17 -4 31 -10 31 -5
0 -10 -11 -10 -24z"/>
<path d="M161 458 c1 -19 3 -25 6 -15 5 18 5 18 19 0 16 -22 19 -1 4 28 -16
29 -30 23 -29 -13z"/>
<path d="M370 466 c0 -36 17 -41 18 -6 0 17 -4 30 -9 30 -5 0 -9 -11 -9 -24z"/>
<path d="M402 460 c0 -19 2 -27 5 -17 2 9 2 25 0 35 -3 9 -5 1 -5 -18z"/>
<path d="M524 468 c3 -13 6 -26 6 -30 0 -15 27 -8 45 12 17 19 41 18 29 -1 -3
-5 -10 -7 -15 -4 -5 4 -9 2 -9 -3 0 -8 22 -22 36 -22 8 0 4 49 -6 55 -16 10
-59 -6 -63 -23 -3 -10 -5 -5 -6 11 0 15 -6 27 -12 27 -7 0 -9 -9 -5 -22z"/>
<path d="M438 471 c11 -7 10 -9 -3 -15 -19 -7 -11 -26 11 -26 8 0 14 10 14 25
0 17 -5 25 -17 25 -14 0 -15 -2 -5 -9z"/>
<path d="M477 473 c-4 -3 -7 -15 -7 -26 0 -19 14 -16 16 4 3 22 7 22 14 -1 l8
-25 1 28 c1 25 -16 36 -32 20z"/>
<path d="M630 455 c0 -14 4 -25 9 -25 4 0 6 11 3 25 -2 14 -6 25 -8 25 -2 0
-4 -11 -4 -25z"/>
<path d="M655 467 c-4 -11 -3 -23 4 -30 8 -8 11 -8 11 2 0 11 3 11 15 1 16
-13 35 -6 35 15 0 20 -19 28 -34 15 -11 -8 -15 -8 -19 2 -3 9 -7 8 -12 -5z"/>
<path d="M130 378 c0 -12 3 -18 7 -14 11 10 12 36 2 36 -5 0 -9 -10 -9 -22z"/>
<path d="M162 380 c0 -14 2 -19 5 -12 2 6 2 18 0 25 -3 6 -5 1 -5 -13z"/>
<path d="M227 385 c-4 -8 -2 -17 3 -20 6 -4 10 3 10 14 0 25 -6 27 -13 6z"/>
<path d="M584 386 c-10 -8 -16 -18 -11 -22 4 -4 7 -2 7 4 0 7 5 12 11 12 5 0
7 -4 4 -10 -3 -5 1 -10 9 -10 9 0 16 5 16 10 0 6 -5 10 -11 10 -5 0 -7 5 -4
10 9 14 2 13 -21 -4z"/>
<path d="M661 383 c-1 -18 4 -23 25 -23 26 0 30 20 4 28 -7 3 -10 0 -6 -7 4
-6 3 -11 -3 -11 -5 0 -12 8 -14 18 -4 13 -5 11 -6 -5z"/>
<path d="M732 380 c0 -14 2 -19 5 -12 2 6 2 18 0 25 -3 6 -5 1 -5 -13z"/>
<path d="M186 383 c5 -5 12 -12 15 -16 3 -5 9 -2 12 7 5 12 0 16 -15 16 -12 0
-17 -3 -12 -7z"/>
<path d="M266 376 c3 -7 11 -13 19 -13 8 0 12 4 9 9 -3 4 0 8 5 8 6 0 11 -8
11 -17 1 -16 2 -16 16 2 13 17 16 18 24 5 9 -13 11 -13 20 0 6 10 10 11 10 3
0 -7 7 -10 15 -6 27 10 8 16 -64 19 -54 3 -69 0 -65 -10z"/>
<path d="M478 372 c4 -11 6 -11 14 0 7 9 8 5 4 -12 l-5 -25 17 23 c14 18 20
20 30 10 9 -9 12 -8 12 5 0 13 -8 16 -39 14 -27 -1 -37 -6 -33 -15z"/>
<path d="M626 375 c4 -8 8 -15 10 -15 2 0 4 7 4 15 0 8 -4 15 -10 15 -5 0 -7
-7 -4 -15z"/>
<path d="M764 378 c-3 -5 -3 -12 0 -15 3 -4 6 -1 6 5 0 7 5 12 11 12 5 0 8 -4
5 -8 -8 -13 28 -11 37 2 5 8 9 8 15 -1 5 -8 13 -9 22 -3 18 12 17 12 -43 15
-26 1 -50 -2 -53 -7z"/>
<path d="M137 323 c-11 -11 -8 -43 5 -43 6 0 8 3 5 6 -3 4 -2 15 4 25 9 18 0
26 -14 12z"/>
<path d="M510 320 c0 -5 5 -10 11 -10 5 0 7 5 4 10 -3 6 -8 10 -11 10 -2 0 -4
-4 -4 -10z"/>
<path d="M235 308 c-4 -10 -11 -18 -17 -18 -5 0 -7 4 -4 8 3 5 -1 9 -9 9 -8 0
-12 -4 -9 -9 3 -4 1 -8 -5 -8 -5 0 -12 6 -14 13 -4 7 -6 6 -6 -5 -1 -13 9 -16
56 -14 38 1 58 6 61 15 3 10 -1 12 -16 9 -12 -3 -23 -1 -25 6 -3 6 -8 4 -12
-6z"/>
<path d="M310 301 c0 -25 6 -27 13 -6 4 8 2 17 -3 20 -6 4 -10 -3 -10 -14z"/>
<path d="M336 304 c-4 -9 -4 -19 -1 -22 3 -3 5 1 5 9 0 11 2 11 10 -1 9 -13
10 -13 10 0 0 12 2 12 9 2 7 -11 9 -11 14 2 4 9 2 16 -2 16 -5 0 -16 3 -24 6
-8 3 -17 -2 -21 -12z"/>
<path d="M570 305 c0 -17 7 -21 38 -22 20 0 31 2 24 4 -6 3 -10 8 -8 12 3 4
-1 8 -9 8 -8 0 -12 -4 -9 -9 10 -16 -9 -8 -22 10 -13 16 -13 16 -14 -3z"/>
<path d="M400 295 c0 -6 10 -12 22 -12 18 -2 20 0 8 7 -12 8 -10 10 8 10 13 0
20 -4 17 -10 -8 -13 16 -13 35 1 13 9 12 10 -2 5 -10 -3 -18 -1 -18 5 0 5 -16
9 -35 7 -19 -1 -35 -7 -35 -13z"/>
<path d="M526 301 c-19 -7 -18 -8 4 -14 13 -3 26 -4 29 -2 2 3 -2 5 -10 5 -11
0 -11 2 1 10 18 11 3 12 -24 1z"/>
<path d="M646 295 c7 -17 54 -16 54 1 0 6 -7 11 -15 11 -8 0 -12 -4 -9 -9 3
-4 0 -8 -5 -8 -6 0 -11 5 -11 10 0 6 -4 10 -10 10 -5 0 -7 -7 -4 -15z"/>
<path d="M711 294 c0 -11 3 -14 6 -6 3 7 2 16 -1 19 -3 4 -6 -2 -5 -13z"/>
<path d="M731 294 c0 -11 3 -14 6 -6 3 7 2 16 -1 19 -3 4 -6 -2 -5 -13z"/>
</g>
</svg>
