<?xml version="1.0" standalone="no"?>
<!DOCTYPE svg PUBLIC "-//W3C//DTD SVG 20010904//EN"
 "http://www.w3.org/TR/2001/REC-SVG-20010904/DTD/svg10.dtd">
<svg version="1.0" xmlns="http://www.w3.org/2000/svg"
 width="100.000000pt" height="100.000000pt" viewBox="0 0 100.000000 100.000000"
 preserveAspectRatio="xMidYMid meet">

<g transform="translate(0.000000,100.000000) scale(0.100000,-0.100000)"
fill="#000000" stroke="none">
<path d="M0 500 l0 -500 500 0 500 0 0 500 0 500 -500 0 -500 0 0 -500z m745
179 c4 -27 5 -52 3 -55 -3 -2 -62 1 -133 6 -85 6 -167 6 -243 0 -63 -6 -117
-8 -120 -6 -2 3 -1 28 3 55 l7 51 238 0 238 0 7 -51z m-65 -125 l72 -16 -6
-31 c-3 -17 -8 -32 -10 -35 -3 -2 -35 3 -72 12 -38 8 -70 14 -71 12 -2 -2 21
-34 52 -72 l55 -69 -26 -25 -25 -25 -22 25 c-12 14 -36 44 -54 65 l-32 40 -1
-97 0 -98 -35 0 -35 0 -1 68 c-1 37 0 79 1 95 2 38 -13 34 -44 -12 -15 -21
-38 -49 -51 -61 l-25 -23 -24 22 -25 23 56 70 c31 38 54 70 52 72 -2 3 -35 -3
-72 -11 -37 -8 -70 -13 -72 -11 -3 2 -8 18 -11 35 l-6 31 73 15 c41 9 88 18
104 21 51 7 179 -2 255 -20z"/>
</g>
</svg>
